<svg xmlns="http://www.w3.org/2000/svg" viewBox="0 0 520 880" width="520" height="880" role="img"><rect width="520" height="880" fill="#fff1c1"/><rect x="16.0" y="16.0" width="488.0" height="203.0" fill="#ffddb5"/><rect x="16.0" y="73.1" width="488.0" height="33.9" fill="#e59d2c"/><circle cx="172.9" cy="124.9" r="75.4" fill="#fff1c1"/><circle cx="172.9" cy="124.9" r="33.2" fill="#e59d2c"/><path d="M132.4 116.7 L110.4 115.7 L97.6 133.7 L98.7 111.7 L80.6 98.9 L102.7 99.9 L115.4 81.9 L114.4 104.0Z" fill="#8a242e"/><rect x="16.0" y="231.0" width="488.0" height="203.0" fill="#8a242e"/><rect x="16.0" y="307.5" width="488.0" height="59.4" fill="#d4e3ff"/><circle cx="277.8" cy="293.4" r="69.2" fill="#ffddb5"/><circle cx="277.8" cy="293.4" r="30.4" fill="#e87f00"/><path d="M144.3 297.7 L116.8 300.7 L104.6 325.5 L101.5 298.0 L76.8 285.8 L104.2 282.7 L116.5 257.9 L119.5 285.4Z" fill="#4e80c2"/><rect x="16.0" y="446.0" width="488.0" height="203.0" fill="#4e80c2"/><rect x="16.0" y="471.6" width="488.0" height="41.2" fill="#ffddb5"/><circle cx="191.4" cy="554.8" r="75.2" fill="#d4e3ff"/><circle cx="191.4" cy="554.8" r="33.1" fill="#e59d2c"/><path d="M243.1 564.4 L221.2 562.5 L207.8 579.9 L209.7 558.0 L192.2 544.6 L214.1 546.5 L227.6 529.1 L225.6 551.0Z" fill="#8a242e"/><rect x="16.0" y="661.0" width="488.0" height="203.0" fill="#d4e3ff"/><rect x="16.0" y="733.6" width="488.0" height="54.6" fill="#ffddb5"/><circle cx="350.9" cy="750.1" r="63.8" fill="#e59d2c"/><circle cx="350.9" cy="750.1" r="28.1" fill="#4e80c2"/><path d="M359.1 735.2 L331.2 734.9 L315.9 758.1 L316.3 730.3 L293.0 715.0 L320.8 715.3 L336.1 692.1 L335.8 719.9Z" fill="#fff1c1"/></svg>